<svg xmlns="http://www.w3.org/2000/svg" width="1333.333" height="1333.333" version="1" viewBox="0 0 1000 1000"><path d="M471.2 1C344.4 8.9 230.2 61.2 142 151.6c-62.3 64-105.6 141.5-126.9 227.5C4.8 420.8.6 455.4.6 500c0 44.6 4.2 79.2 14.5 120.9C28.8 676.4 52.3 729.6 84 777c18.5 27.6 35.5 48.5 59.9 73.4 71.5 72.8 161.8 121.2 262.1 140.5 32.3 6.2 57.5 8.5 94 8.5 55.7 0 103.5-7.5 154.4-24 132.7-43.3 243-141.5 300.1-267.4 24.1-52.9 37.7-105.2 43.6-166.5 2.7-27.7 1.5-75.1-2.7-107.3-7.3-56.4-26.4-116.8-52.6-166.2-23.7-44.6-50.5-81.3-85.8-117.4C772.4 64.2 664.9 13.4 542.5 2 527 .6 487 0 471.2 1zM633 500v301H457V357h-90V199h266v301z"/></svg>