<?xml version="1.0" standalone="no"?>
<!DOCTYPE svg PUBLIC "-//W3C//DTD SVG 20010904//EN"
 "http://www.w3.org/TR/2001/REC-SVG-20010904/DTD/svg10.dtd">
<svg version="1.0" xmlns="http://www.w3.org/2000/svg"
 width="1500.000000pt" height="1500.000000pt" viewBox="0 0 1500.000000 1500.000000"
 preserveAspectRatio="xMidYMid meet">
<metadata>
Created by potrace 1.11, written by Peter Selinger 2001-2013
</metadata>
<g transform="translate(0.000000,1500.000000) scale(0.100000,-0.100000)"
fill="#000000" stroke="none">
<path d="M7168 14995 c-2 -2 -62 -6 -134 -9 -72 -4 -142 -9 -155 -11 -13 -2
-58 -7 -99 -10 -41 -3 -91 -8 -110 -10 -19 -3 -60 -7 -90 -10 -30 -3 -80 -10
-110 -15 -30 -5 -77 -12 -105 -16 -27 -3 -59 -8 -70 -10 -24 -5 -61 -11 -140
-25 -33 -5 -80 -14 -105 -19 -25 -5 -56 -12 -70 -14 -14 -2 -47 -10 -75 -16
-27 -6 -61 -14 -75 -16 -191 -36 -677 -183 -975 -294 -262 -98 -763 -326 -920
-420 -16 -9 -55 -31 -85 -47 -187 -101 -512 -308 -722 -459 -90 -65 -298 -222
-308 -234 -3 -3 -38 -32 -79 -65 -175 -141 -320 -273 -531 -483 -230 -228
-333 -343 -567 -626 -119 -145 -398 -538 -496 -698 -23 -38 -55 -90 -71 -116
-170 -277 -345 -620 -483 -947 -65 -153 -153 -380 -153 -394 0 -6 -4 -19 -10
-29 -34 -59 -211 -659 -236 -802 -3 -14 -9 -41 -14 -60 -5 -20 -16 -71 -25
-115 -8 -44 -17 -91 -20 -105 -3 -14 -8 -38 -10 -55 -3 -16 -12 -66 -20 -110
-16 -93 -41 -264 -51 -350 -3 -33 -8 -73 -10 -90 -2 -16 -6 -61 -9 -100 -3
-38 -7 -83 -10 -100 -12 -81 -20 -321 -20 -610 0 -342 7 -516 30 -737 13 -124
17 -158 26 -223 5 -38 12 -88 14 -110 3 -22 7 -51 10 -65 2 -14 7 -38 9 -55 2
-16 8 -50 12 -75 4 -25 8 -49 9 -55 10 -87 86 -420 160 -705 45 -176 211 -658
278 -812 8 -18 27 -62 42 -98 53 -125 111 -252 176 -385 49 -101 80 -160 184
-350 127 -231 359 -587 549 -840 66 -88 123 -162 126 -165 4 -3 49 -57 100
-120 162 -197 231 -272 480 -520 107 -108 233 -229 280 -270 46 -41 90 -79 96
-85 29 -26 124 -106 164 -139 25 -21 54 -45 65 -54 67 -55 357 -270 450 -332
130 -88 335 -220 340 -220 3 0 28 -15 57 -34 29 -18 116 -68 193 -110 77 -42
149 -82 160 -88 168 -95 587 -283 840 -378 228 -85 631 -214 735 -235 8 -2 51
-12 95 -24 83 -21 237 -56 290 -65 17 -3 41 -8 55 -11 167 -37 518 -89 745
-110 28 -3 73 -7 100 -10 285 -27 989 -27 1255 1 25 2 65 6 90 8 90 8 151 15
345 41 23 3 73 11 165 26 36 6 79 13 95 16 31 5 222 43 240 47 6 2 28 6 50 11
107 20 410 101 585 155 107 34 200 62 205 64 6 2 17 6 25 9 8 3 38 13 65 22
28 10 59 21 70 25 11 4 70 27 130 50 257 97 628 267 850 389 169 94 259 145
314 178 33 21 98 61 144 90 149 92 601 411 627 442 3 3 39 33 80 66 206 163
382 323 612 555 192 194 214 218 338 360 159 182 376 462 526 677 54 77 254
390 254 397 0 3 15 29 33 58 75 118 242 437 342 653 194 419 395 1000 480
1385 24 110 68 310 71 328 2 12 8 49 14 82 6 33 12 72 15 87 3 16 8 44 11 63
3 19 7 46 9 60 15 93 43 315 50 400 3 36 7 85 10 110 13 144 20 343 20 630 0
353 -8 512 -40 810 -7 73 -35 288 -40 320 -3 14 -7 36 -10 50 -2 14 -9 54 -15
90 -15 98 -19 121 -30 170 -5 25 -12 56 -14 70 -75 395 -247 951 -424 1370
-42 101 -52 123 -102 235 -39 85 -164 335 -219 435 -28 52 -59 111 -69 130 -9
19 -19 37 -22 40 -3 3 -32 50 -64 105 -93 157 -306 481 -368 560 -5 6 -47 62
-94 125 -47 63 -95 126 -107 140 -12 13 -29 34 -37 46 -8 11 -36 45 -62 75
-25 30 -63 75 -85 100 -138 168 -537 575 -698 714 -38 33 -81 70 -95 82 -14
12 -36 31 -50 43 -14 12 -43 36 -64 53 -22 18 -55 46 -75 63 -20 17 -92 74
-161 126 -895 680 -1893 1140 -2980 1372 -91 20 -221 45 -290 56 -69 11 -147
24 -175 29 -27 6 -77 13 -110 16 -33 3 -71 8 -85 10 -34 5 -137 16 -180 20
-74 5 -207 17 -255 21 -56 6 -802 14 -807 9z"/>
</g>
</svg>
